<svg xmlns="http://www.w3.org/2000/svg" width="278" height="37" viewBox="0 0 278 37" fill="none"><g clip-path="url(#clip0_48_439)"><path d="M54.2354 12.2894V6.87151H50.7731V22.2794H54.1089V26.2437H41.5991V22.2794H44.9855V6.87151H41.5991V12.2894H37.9092V2.90723H58.1274V12.2894H54.2354Z" fill="white"></path><path d="M80.4178 9.24964C80.4576 10.5224 80.1223 11.7771 79.4574 12.8439C78.7188 13.9038 77.7123 14.7275 76.551 15.2225L80.165 22.2789H83.0461V26.2432H76.2477L71.1932 16.0418H68.6659V22.2789H71.4713V26.2432H59.77V22.2789H62.8532V6.87107H59.77V2.90678H72.4064C74.4589 2.78143 76.4958 3.34638 78.2191 4.51893C78.9294 5.05745 79.5018 5.77095 79.8853 6.59616C80.2689 7.42138 80.4517 8.33281 80.4178 9.24964ZM74.327 9.51393C74.3551 9.13982 74.2963 8.76415 74.1555 8.41899C74.0146 8.07383 73.7961 7.76943 73.5184 7.53178C72.8705 7.05352 72.086 6.82047 71.2944 6.87107H68.7671V12.2889H70.7636C73.2909 12.2889 74.327 11.3639 74.327 9.51393Z" fill="white"></path><path d="M97.7296 6.87151L102.405 22.2794H105.059V26.2437H94.0903V22.2794H96.9461L95.8847 18.3151H90.0973L88.9094 22.2794H91.8916V26.2437H82.01V22.2794H84.7647L89.1116 6.87151H86.1295V2.90723H100.737V6.87151H97.7296ZM93.0795 7.79651L90.9818 14.853H94.8737L93.0795 7.79651Z" fill="white"></path><path d="M123.508 6.87151H120.627V2.90723H130.584V6.87151H127.476V26.4287H122.421L112.767 9.09152V22.3058H115.547V26.2701H105.792V22.3058H108.799V6.87151H105.792V2.90723H115.142L123.381 17.4958L123.508 6.87151Z" fill="white"></path><path d="M141.932 4.83683V2.90754H145.723V9.96396H141.932C141.873 8.9831 141.499 8.0518 140.87 7.3211C140.595 7.02837 140.263 6.79948 139.897 6.64924C139.532 6.499 139.14 6.43077 138.747 6.44898C138.18 6.44491 137.628 6.64038 137.181 7.00397C136.978 7.15988 136.814 7.36285 136.7 7.5968C136.586 7.83074 136.525 8.08925 136.523 8.35184C136.514 8.8153 136.667 9.26638 136.953 9.6204C137.256 9.98069 137.614 10.2846 138.014 10.519C138.444 10.7568 139.101 11.074 139.96 11.4704L140.87 11.8668C142.557 12.5577 144.077 13.6319 145.318 15.0118C146.347 16.2562 146.888 17.8608 146.835 19.5047C146.878 20.4311 146.744 21.3574 146.441 22.2289C146.137 23.1003 145.669 23.8994 145.066 24.579C144.436 25.2098 143.69 25.6993 142.873 26.0175C142.056 26.3356 141.185 26.4757 140.314 26.429C139.443 26.4725 138.574 26.2874 137.789 25.8904C137.003 25.4934 136.325 24.8972 135.816 24.1561V26.1647H132.025V18.2361H135.816C135.806 19.3652 136.162 20.4645 136.827 21.3547C137.138 21.7294 137.528 22.0227 137.967 22.2108C138.406 22.399 138.881 22.4769 139.354 22.4382C139.992 22.4359 140.606 22.181 141.072 21.7247C141.512 21.248 141.765 20.6161 141.78 19.954C141.779 19.5916 141.707 19.2333 141.567 18.9014C141.428 18.5695 141.226 18.2711 140.971 18.0247C140.157 17.2738 139.225 16.6748 138.217 16.254C136.42 15.5262 134.785 14.4197 133.415 13.0033C132.458 11.8955 131.935 10.4521 131.949 8.95968C131.932 7.82283 132.202 6.70138 132.732 5.70898C133.23 4.74836 133.974 3.95204 134.881 3.40969C135.798 2.8423 136.847 2.54973 137.913 2.56397C138.728 2.55324 139.533 2.74338 140.264 3.11897C140.958 3.52346 141.534 4.11712 141.932 4.83683Z" fill="white"></path><path d="M164.424 10.0958V6.87151H157.702V12.1572H162.554V16.1215H157.702V22.1737H161.164V26.1379H148.705V22.1737H151.889V6.87151H148.705V2.90723H168.696V10.0958H164.424Z" fill="white"></path><path d="M178.653 6.87151V22.2794H185.249V15.0644H189.545V26.2437H169.58V22.2794H172.764V6.87151H169.58V2.90723H181.964V6.87151H178.653Z" fill="white"></path><path d="M205.619 6.87151L210.294 22.2794H212.822V26.2437H201.853V22.2794H204.709L203.648 18.3151H197.86L196.672 22.2794H199.655V26.2437H189.798V22.2794H192.553L197.127 6.87151H194.145V2.90723H208.753V6.87151H205.619ZM200.969 7.79651L198.972 14.853H202.864L200.969 7.79651Z" fill="white"></path><path d="M224.27 4.83626V2.90697H228.061V9.96339H224.27C224.211 8.98253 223.837 8.05123 223.209 7.32054C222.93 7.03172 222.598 6.80539 222.233 6.65543C221.868 6.50546 221.478 6.43502 221.086 6.44841C220.519 6.44434 219.967 6.63981 219.519 7.00341C219.317 7.15931 219.152 7.36228 219.038 7.59623C218.924 7.83018 218.864 8.08868 218.862 8.35127C218.853 8.81474 219.005 9.26581 219.292 9.61983C219.588 9.98626 219.949 10.2911 220.353 10.5184C220.783 10.7563 221.44 11.0734 222.299 11.4698L223.209 11.8663C224.896 12.5572 226.415 13.6314 227.657 15.0113C228.679 16.2582 229.211 17.8633 229.148 19.5041C229.195 20.4287 229.065 21.3539 228.766 22.2253C228.466 23.0967 228.003 23.8967 227.404 24.5784C226.775 25.2092 226.028 25.6988 225.211 26.0169C224.394 26.3351 223.524 26.4751 222.653 26.4284C221.778 26.4692 220.907 26.2831 220.118 25.8865C219.328 25.4899 218.645 24.8953 218.129 24.1555V26.1641H214.338V18.2355H218.129C218.147 19.3641 218.51 20.457 219.165 21.3541C219.462 21.7121 219.832 21.9954 220.247 22.1831C220.663 22.3707 221.114 22.4577 221.566 22.4377C222.213 22.4421 222.837 22.1867 223.31 21.7241C223.53 21.4906 223.703 21.2139 223.82 20.91C223.937 20.6061 223.996 20.281 223.992 19.9534C223.991 19.591 223.919 19.2328 223.78 18.9009C223.641 18.569 223.438 18.2705 223.184 18.0241C222.383 17.2665 221.459 16.6666 220.454 16.2534C218.657 15.5256 217.023 14.4191 215.652 13.0027C214.689 11.8976 214.157 10.4547 214.161 8.95911C214.156 7.82383 214.426 6.70568 214.945 5.70841C215.459 4.75244 216.21 3.9584 217.118 3.40912C218.035 2.87283 219.075 2.60787 220.126 2.64269C220.948 2.62878 221.762 2.81897 222.501 3.19768C223.218 3.5724 223.828 4.13746 224.27 4.83626Z" fill="white"></path><path d="M239.257 6.87151V11.9194H245.348V6.87151H243.073V2.90723H253.789V6.87151H251.009V22.2794H253.789V26.2437H243.073V22.2794H245.348V15.8572H239.257V22.2265H241.607V26.1908H230.841V22.2265H233.621V6.87151H230.841V2.90723H241.607V6.87151H239.257Z" fill="white"></path><path d="M27.8 31.7139L4.76837e-05 31.7139V30.0526C4.76837e-05 22.783 2.41644 15.8111 6.71759 10.6707C11.0187 5.53028 16.8523 2.64244 22.9351 2.64244H27.8L27.8 31.7139Z" fill="#47BF6F"></path><path d="M27.8 31.7139H113.727V36.9996H32.3744C31.1612 36.9996 29.9977 36.7476 29.1398 36.299C28.282 35.8505 27.8 35.2421 27.8 34.6078V31.7139Z" fill="#B3EE4A"></path><path d="M278 21.1426H260.309V26.4283H278V21.1426Z" fill="#B3EE4A"></path></g><defs><clipPath id="clip0_48_439"><rect width="278" height="37" fill="white"></rect></clipPath></defs></svg>