<svg xmlns="http://www.w3.org/2000/svg" width="156" height="21" viewBox="0 0 156 21" fill="none"><g clip-path="url(#clip0_35_822)"><path d="M30.4342 6.97491V3.8999H28.4913V12.6449H30.3632V14.8949H23.3433V12.6449H25.2436V3.8999H23.3433V6.97491H21.2727V1.6499H32.6182V6.97491H30.4342Z" fill="#083C04"></path><path d="M45.1266 5.25011C45.1489 5.97246 44.9608 6.68462 44.5876 7.29011C44.1732 7.89166 43.6084 8.35915 42.9567 8.64011L44.9847 12.6451H46.6014V14.8951H42.7865L39.9502 9.10511H38.532V12.6451H40.1062V14.8951H33.54V12.6451H35.2702V3.90011H33.54V1.65011H40.6309C41.7827 1.57896 42.9257 1.89961 43.8927 2.56511C44.2914 2.87075 44.6125 3.27571 44.8278 3.74408C45.043 4.21244 45.1456 4.72974 45.1266 5.25011ZM41.7087 5.40011C41.7245 5.18777 41.6915 4.97456 41.6124 4.77866C41.5334 4.58276 41.4108 4.40999 41.255 4.27511C40.8914 4.00366 40.4512 3.87139 40.0069 3.90011H38.5888V6.97511H39.7091C41.1273 6.97511 41.7087 6.45011 41.7087 5.40011Z" fill="#083C04"></path><path d="M54.8411 3.8999L57.4648 12.6449H58.9538V14.8949H52.7989V12.6449H54.4014L53.8058 10.3949H50.5582L49.8916 12.6449H51.5651V14.8949H46.02V12.6449H47.5658L50.0051 3.8999H48.3317V1.6499H56.5287V3.8999H54.8411ZM52.2317 4.4249L51.0545 8.42991H53.2385L52.2317 4.4249Z" fill="#083C04"></path><path d="M69.3065 3.8999H67.6897V1.6499H73.2774V3.8999H71.533V14.9999H68.6967L63.2792 5.15991V12.6599H64.8392V14.9099H59.365V12.6599H61.0526V3.8999H59.365V1.6499H64.6123L69.2356 9.92991L69.3065 3.8999Z" fill="#083C04"></path><path d="M79.6452 2.74512V1.65011H81.7724V5.65511H79.6452C79.6121 5.0984 79.4022 4.56983 79.0496 4.15511C78.8948 3.98896 78.7088 3.85905 78.5036 3.77378C78.2984 3.68851 78.0786 3.64979 77.8583 3.66012C77.5401 3.65781 77.2304 3.76875 76.9791 3.97512C76.8657 4.0636 76.7733 4.1788 76.7093 4.31158C76.6453 4.44436 76.6114 4.59108 76.6103 4.74012C76.6051 5.00317 76.6908 5.25919 76.8514 5.46011C77.0212 5.6646 77.2226 5.83707 77.447 5.97012C77.6881 6.10512 78.0568 6.28511 78.539 6.51011L79.0496 6.73511C79.9963 7.12724 80.8488 7.73693 81.5456 8.52011C82.1228 9.22637 82.4267 10.1371 82.3964 11.0701C82.421 11.5959 82.3459 12.1217 82.1754 12.6163C82.0049 13.1109 81.7426 13.5644 81.4038 13.9501C81.0505 14.3082 80.6318 14.586 80.1733 14.7666C79.7148 14.9471 79.2262 15.0266 78.7376 15.0001C78.2485 15.0248 77.7613 14.9198 77.3204 14.6944C76.8795 14.4691 76.4989 14.1308 76.2132 13.7101V14.8501H74.0859V10.3501H76.2132C76.2077 10.991 76.4077 11.6149 76.7805 12.1201C76.9549 12.3328 77.1741 12.4992 77.4204 12.606C77.6667 12.7129 77.9333 12.7571 78.1987 12.7351C78.557 12.7338 78.9015 12.5891 79.163 12.3301C79.4098 12.0596 79.5514 11.7009 79.5601 11.3251C79.5595 11.1194 79.5189 10.9161 79.4408 10.7277C79.3627 10.5394 79.2489 10.37 79.1063 10.2301C78.6493 9.80393 78.1264 9.46398 77.5605 9.22512C76.5522 8.81203 75.635 8.18402 74.8659 7.38011C74.3291 6.7514 74.0356 5.93219 74.0434 5.08511C74.0336 4.43987 74.1853 3.80337 74.483 3.24012C74.7622 2.69491 75.1796 2.24294 75.6885 1.93512C76.2034 1.61309 76.7921 1.44703 77.3903 1.45512C77.8472 1.44902 78.2991 1.55694 78.7092 1.77011C79.0988 1.99969 79.4222 2.33663 79.6452 2.74512Z" fill="#083C04"></path><path d="M92.2668 5.7299V3.8999H88.4945V6.8999H91.2174V9.1499H88.4945V12.5849H90.4374V14.8349H83.4458V12.5849H85.2326V3.8999H83.4458V1.6499H94.6636V5.7299H92.2668Z" fill="#083C04"></path><path d="M100.251 3.8999V12.6449H103.953V8.5499H106.364V14.8949H95.1599V12.6449H96.9468V3.8999H95.1599V1.6499H102.109V3.8999H100.251Z" fill="#083C04"></path><path d="M115.383 3.8999L118.007 12.6449H119.425V14.8949H113.27V12.6449H114.873L114.277 10.3949H111.029L110.363 12.6449H112.036V14.8949H106.505V12.6449H108.051L110.618 3.8999H108.945V1.6499H117.142V3.8999H115.383ZM112.774 4.4249L111.653 8.42991H113.837L112.774 4.4249Z" fill="#083C04"></path><path d="M125.85 2.74502V1.65001H127.977V5.65501H125.85C125.816 5.0983 125.607 4.56973 125.254 4.15501C125.098 3.99109 124.911 3.86263 124.707 3.77752C124.502 3.6924 124.283 3.65242 124.063 3.66002C123.744 3.65771 123.435 3.76866 123.183 3.97502C123.07 4.06351 122.978 4.1787 122.914 4.31149C122.85 4.44427 122.816 4.59099 122.815 4.74002C122.809 5.00307 122.895 5.25909 123.056 5.46001C123.222 5.66799 123.424 5.841 123.651 5.97002C123.892 6.10502 124.261 6.28501 124.743 6.51001L125.254 6.73501C126.201 7.12714 127.053 7.73684 127.75 8.52002C128.323 9.22775 128.622 10.1387 128.587 11.07C128.613 11.5948 128.54 12.1199 128.372 12.6145C128.204 13.109 127.944 13.5631 127.608 13.95C127.255 14.3081 126.836 14.5859 126.378 14.7665C125.919 14.947 125.43 15.0265 124.942 15C124.451 15.0232 123.962 14.9175 123.519 14.6925C123.076 14.4674 122.693 14.1299 122.403 13.71V14.85H120.276V10.35H122.403C122.414 10.9905 122.617 11.6108 122.985 12.12C123.151 12.3232 123.359 12.484 123.592 12.5905C123.825 12.697 124.078 12.7464 124.332 12.735C124.695 12.7375 125.045 12.5926 125.311 12.33C125.434 12.1975 125.531 12.0405 125.597 11.868C125.663 11.6955 125.696 11.511 125.694 11.325C125.693 11.1193 125.652 10.916 125.574 10.7276C125.496 10.5393 125.382 10.3699 125.24 10.23C124.791 9.80003 124.272 9.45954 123.708 9.22502C122.7 8.81193 121.783 8.18392 121.014 7.38001C120.473 6.75279 120.174 5.93383 120.177 5.08501C120.174 4.44067 120.325 3.80604 120.616 3.24002C120.905 2.69745 121.326 2.24677 121.836 1.93502C122.351 1.63063 122.934 1.48025 123.524 1.50002C123.985 1.49212 124.442 1.60007 124.857 1.81501C125.259 2.02769 125.601 2.3484 125.85 2.74502Z" fill="#083C04"></path><path d="M134.259 3.8999V6.76491H137.677V3.8999H136.401V1.6499H142.414V3.8999H140.854V12.6449H142.414V14.8949H136.401V12.6449H137.677V8.99991H134.259V12.6149H135.578V14.8649H129.537V12.6149H131.097V3.8999H129.537V1.6499H135.578V3.8999H134.259Z" fill="#083C04"></path><path d="M15.6001 18L9.72748e-05 18V17.0571C9.72748e-05 12.9311 1.35606 8.97411 3.76965 6.05658C6.18325 3.13905 9.45677 1.5 12.8701 1.5H15.6001L15.6001 18Z" fill="#47BF6F"></path><path d="M15.6001 18H63.8183V21H18.167C17.4862 21 16.8333 20.857 16.3519 20.6024C15.8705 20.3478 15.6001 20.0025 15.6001 19.6425V18Z" fill="#B3EE4A"></path><path d="M156 12H146.073V15H156V12Z" fill="#B3EE4A"></path></g><defs><clipPath id="clip0_35_822"><rect width="156" height="21" fill="white"></rect></clipPath></defs></svg>